<?xml version="1.0" encoding="UTF-8" standalone="no"?>
<svg
   width="64"
   height="64"
   version="1.1"
   viewBox="0 0 64 64"
   id="svg26"
   xmlns="http://www.w3.org/2000/svg"
   xmlns:svg="http://www.w3.org/2000/svg">
  <defs
     id="defs30">
    <clipPath
       clipPathUnits="userSpaceOnUse"
       id="clipPath16722">
      <g
         id="use16724">
        <rect
           style="opacity:1;fill:#0300ff;fill-opacity:1;stroke-width:0"
           id="rect17809"
           width="143.30228"
           height="141.65515"
           x="202.60612"
           y="-159.88579" />
      </g>
    </clipPath>
    <clipPath
       clipPathUnits="userSpaceOnUse"
       id="clipPath23845">
      <rect
         style="opacity:1;fill:#cc2a2a;fill-opacity:1;stroke-width:0"
         id="rect23847"
         width="210.83559"
         height="250.55826"
         x="283.06372"
         y="59.669743" />
    </clipPath>
  </defs>
  <g
     id="layer6"
     style="display:inline">
    <rect
       style="display:inline;opacity:0.2;stroke-width:0.973328"
       width="53.052631"
       height="56"
       x="-58"
       y="-60.032375"
       rx="2.6526315"
       ry="2.8"
       transform="matrix(0,-1,-1,0,0,0)"
       id="rect2" />
    <rect
       style="display:inline;fill:#6b9fff;fill-opacity:1;stroke-width:0.973328"
       width="53.052631"
       height="56"
       x="-57.052631"
       y="-60"
       rx="2.6526315"
       ry="2.8"
       transform="matrix(0,-1,-1,0,0,0)"
       id="rect4" />
  </g>
  <g
     id="layer3"
     style="display:inline">
    <path
       style="opacity:0.5;fill:#1d2324;fill-opacity:1;stroke-width:1.05671"
       d="m 59.830386,54.294566 c 0,1.551168 -1.382745,2.800722 -3.101202,2.800722 H 10.699647 7.1012099 C 5.3827474,57.095287 4,55.845734 4,54.294566 V 43.095589 h 55.826025 v 11.198977 z"
       id="path6-2" />
    <rect
       style="fill:#515151;fill-opacity:1;stroke-width:1"
       width="6"
       height="6"
       x="-53.5"
       y="-14.049127"
       rx="0.75"
       ry="0.75"
       id="rect10-7"
       transform="matrix(0,-1,-1,0,0,0)" />
    <rect
       style="opacity:0.2;fill:#ffffff;fill-opacity:1;stroke-width:1"
       width="6"
       height="6"
       x="-54.5"
       y="-55.782375"
       rx="0.75"
       ry="0.75"
       id="rect12-0"
       transform="matrix(0,-1,-1,0,0,0)" />
    <rect
       style="fill:#ffffff;fill-opacity:1;stroke-width:1"
       width="6"
       height="6"
       x="-53.5"
       y="-55.782375"
       rx="0.75"
       ry="0.75"
       id="rect14-9"
       transform="matrix(0,-1,-1,0,0,0)" />
    <rect
       style="opacity:0.2;fill:#ffffff;fill-opacity:1;stroke-width:1"
       width="6"
       height="6"
       x="-54.5"
       y="-47.782375"
       rx="0.75"
       ry="0.75"
       id="rect16-3"
       transform="matrix(0,-1,-1,0,0,0)" />
    <rect
       style="fill:#ffffff;fill-opacity:1;stroke-width:1"
       width="6"
       height="6"
       x="-53.5"
       y="-47.782375"
       rx="0.75"
       ry="0.75"
       id="rect18-6"
       transform="matrix(0,-1,-1,0,0,0)" />
    <rect
       style="opacity:0.2;fill:#ffffff;fill-opacity:1;stroke-width:1"
       width="6"
       height="6"
       x="-54.5"
       y="-39.782375"
       rx="0.75"
       ry="0.75"
       id="rect20-0"
       transform="matrix(0,-1,-1,0,0,0)" />
    <rect
       style="fill:#ffffff;fill-opacity:1;stroke-width:1"
       width="6"
       height="6"
       x="-53.5"
       y="-39.782375"
       rx="0.75"
       ry="0.75"
       id="rect22-6"
       transform="matrix(0,-1,-1,0,0,0)" />
    <rect
       style="fill:#ffffff;fill-opacity:1;stroke-width:1"
       width="6"
       height="6"
       x="-53.5"
       y="-14.049127"
       rx="0.75"
       ry="0.75"
       id="rect24-2"
       transform="matrix(0,-1,-1,0,0,0)" />
  </g>
  <g
     id="layer1"
     style="display:inline">
    <path
       style="fill:#29353b;fill-opacity:1;stroke-width:1.03008"
       d="M 6.800721,4 C 5.249554,4 4,5.3139475 4,6.9469073 v 43.7394017 3.419402 c 0,1.632963 1.249554,2.946914 2.800721,2.946914 H 17.999699 V 4.0041445 H 6.800721 Z"
       id="path6" />
    <rect
       style="opacity:0.2;fill:#ffffff;fill-opacity:1;stroke-width:1"
       width="6"
       height="6"
       x="8"
       y="9"
       rx="0.75"
       ry="0.75"
       id="rect12" />
    <rect
       style="fill:#ffffff;fill-opacity:1;stroke-width:1"
       width="6"
       height="6"
       x="8"
       y="8"
       rx="0.75"
       ry="0.75"
       id="rect14" />
    <rect
       style="opacity:0.2;fill:#ffffff;fill-opacity:1;stroke-width:1"
       width="6"
       height="6"
       x="8"
       y="17"
       rx="0.75"
       ry="0.75"
       id="rect16" />
    <rect
       style="fill:#ffffff;fill-opacity:1;stroke-width:1"
       width="6"
       height="6"
       x="8"
       y="16"
       rx="0.75"
       ry="0.75"
       id="rect18" />
    <rect
       style="opacity:0.2;fill:#ffffff;fill-opacity:1;stroke-width:1"
       width="6"
       height="6"
       x="8"
       y="25"
       rx="0.75"
       ry="0.75"
       id="rect20" />
    <rect
       style="fill:#ffffff;fill-opacity:1;stroke-width:1"
       width="6"
       height="6"
       x="8"
       y="24"
       rx="0.75"
       ry="0.75"
       id="rect22" />
    <rect
       style="display:inline;opacity:0.2;fill:#ffffff;fill-opacity:1;stroke-width:1"
       width="6"
       height="6"
       x="8"
       y="48.654312"
       rx="0.75"
       ry="0.75"
       id="rect20-3" />
    <rect
       style="display:inline;fill:#ffffff;fill-opacity:1;stroke-width:1"
       width="6"
       height="6"
       x="8"
       y="47.654312"
       rx="0.75"
       ry="0.75"
       id="rect22-67" />
  </g>
  <g
     id="layer4"
     style="display:inline">
    <path
       style="opacity:0.2;fill:#000000;fill-opacity:1;stroke-width:0.832466"
       d="m 31.986972,16.250711 c 1.400292,-0.01448 2.790842,0.192781 4.141192,0.562562 6.288006,1.686743 10.889819,7.910233 10.794411,14.423448 h 3.380269 c -1.723172,2.53375 -4.994794,7.490569 -4.994794,7.490569 0,0 -4.994796,-7.492985 -4.994796,-7.493817 h 3.261576 c 0.01199,-2.72766 -1.011738,-5.470616 -2.827463,-7.506828 -3.412651,-4.103058 -9.592303,-5.811085 -14.345402,-2.325053 -1.506754,1.972278 -4.793003,-0.265712 -3.097354,-2.216115 2.497556,-1.945022 5.529113,-2.928106 8.682361,-2.934766 z"
       id="path10"
       clip-path="none" />
  </g>
  <g
     id="g932"
     style="display:inline">
    <path
       style="fill:#ffffff;fill-opacity:1;stroke-width:0.832466"
       d="m 31.986972,15.000711 c 1.400292,-0.01448 2.790842,0.192781 4.141192,0.562562 6.288006,1.686743 10.889819,7.910233 10.794411,14.423448 h 3.380269 c -1.723172,2.53375 -4.994794,7.490569 -4.994794,7.490569 0,0 -4.994796,-7.492985 -4.994796,-7.493817 h 3.261576 c 0.01199,-2.72766 -1.011738,-5.470616 -2.827463,-7.506828 -3.412651,-4.103058 -9.592303,-5.811085 -14.345402,-2.325053 -1.506754,1.972278 -4.793003,-0.265712 -3.097354,-2.216115 2.497556,-1.945022 5.529113,-2.928106 8.682361,-2.934766 z"
       id="path930"
       clip-path="none" />
  </g>
</svg>
